#N canvas 531 147 750 551 10;
#X obj 143 -50 gemwin;
#X obj 143 -142 tgl 15 0 empty empty empty 0 -6 0 8 -262144 -1 -1 1
1;
#X msg 178 -142 create;
#X msg 178 -122 destroy;
#X msg 178 -100 dimen 400 400;
#X msg 178 -78 color 1 0 0;
#X floatatom 373 -47 3 -20 2.9 0 - - -;
#X obj 285 -234 cnv 15 145 120 empty empty empty 20 12 0 14 -233017
-66577 0;
#X obj 294 -259 gemhead;
#X obj 294 -91 colorRGB 0 0 1 1;
#X floatatom 320 -109 3 0 1 0 - - -;
#X floatatom 347 -109 3 0 1 0 - - -;
#X floatatom 374 -109 3 0 1 0 - - -;
#X obj 294 -70 alpha;
#X floatatom 320 -47 3 -4 4 0 - - -;
#X floatatom 346 -47 3 -4 4 0 - - -;
#X obj 294 -29 translateXYZ;
#X floatatom 313 -7 3 0 359 0 - - -;
#X floatatom 336 -7 3 0 359 0 - - -;
#X floatatom 359 -7 3 0 359 0 - - -;
#X obj 294 11 rotateXYZ;
#X floatatom 311 33 3 0 4 0 - - -;
#X floatatom 334 33 3 0 4 0 - - -;
#X floatatom 357 33 3 0 4 0 - - -;
#X obj 294 50 scaleXYZ;
#X obj 294 -280 tgl 17 0 empty Objects_5-head empty 0 -6 0 8 -262144
-1 -1 1 1;
#X obj 294 -136 pix_texture;
#X obj 294 106 sphere 2;
#X floatatom 319 71 3 0 4 0 - - -;
#X floatatom 345 89 3 4 50 0 - - -;
#X text 348 71 Size;
#X floatatom 401 -109 3 0 1 0 - - -;
#X obj 294 -161 pix_film;
#X floatatom 345 -179 5 0 0 0 - - -;
#X msg 319 -203 auto 1;
#X text 374 -202 Click to auto-play;
#X text 415 -226 Click para cargar el vídeo;
#X text 373 87 Número de Facetas;
#X msg 309 -226 open Final Output_2.avi;
#X connect 1 0 0 0;
#X connect 2 0 0 0;
#X connect 3 0 0 0;
#X connect 4 0 0 0;
#X connect 5 0 0 0;
#X connect 6 0 16 3;
#X connect 8 0 32 0;
#X connect 9 0 13 0;
#X connect 10 0 9 1;
#X connect 11 0 9 2;
#X connect 12 0 9 3;
#X connect 13 0 16 0;
#X connect 14 0 16 1;
#X connect 15 0 16 2;
#X connect 16 0 20 0;
#X connect 17 0 20 1;
#X connect 18 0 20 2;
#X connect 19 0 20 3;
#X connect 20 0 24 0;
#X connect 21 0 24 1;
#X connect 22 0 24 2;
#X connect 23 0 24 3;
#X connect 24 0 27 0;
#X connect 25 0 8 0;
#X connect 26 0 9 0;
#X connect 28 0 27 1;
#X connect 29 0 27 2;
#X connect 31 0 9 4;
#X connect 32 0 26 0;
#X connect 33 0 32 1;
#X connect 34 0 32 0;
#X connect 38 0 32 0;
